<?xml version="1.0" encoding="iso-8859-1"?>
<!-- Uploaded to: SVG Repo, www.svgrepo.com, Generator: SVG Repo Mixer Tools -->
<svg height="800px" width="800px" version="1.1" id="Layer_1" xmlns="http://www.w3.org/2000/svg" xmlns:xlink="http://www.w3.org/1999/xlink" 
	 viewBox="0 0 512 512" xml:space="preserve">
<circle style="fill:#88C5CC;" cx="256" cy="256" r="256"/>
<path style="fill:#10161A;" d="M444,288c0-2.2-1.8-4-4-4H72c-2.2,0-4,1.8-4,4v24.056c0,2.2,1.8,3.944,4,3.944h94.084
	c2.2,0,5.916-1.748,5.916-3.944v-16.044c0-2.2,0.704-3.328,2.732-2.476c0,0,52.484,22.464,95.564,22.464
	c52.588,0,169.712,0,169.712,0c2.2,0,4-1.752,4-3.944L444,288L444,288z"/>
<path style="fill:#F5F5F5;" d="M440,284c0-55.092-127.34-29.892-220-92c-43.108,20.144-74.804,29.408-136.196,15.144
	c-3.192-0.724-6.244,0.016-8.804,2.052c-2.536,2.024-3,3.548-3,6.804v68H440z"/>
<path d="M208.4,284H440c0-37.308-58.4-37.816-124.868-53.528C305.524,247.3,214.932,249.54,208.4,284z"/>
<path d="M72,244.108V284h39.648C110.492,262.564,93.416,245.4,72,244.108z"/>
<circle style="fill:#CCCCCC;" cx="220" cy="208" r="8"/>
<circle style="fill:#10161A;" cx="220" cy="208" r="4"/>
</svg>